# Blender v2.83.1 OBJ File: 'wood.blend'
# www.blender.org
mtllib UVtree2.mtl
o Cylinder
v -2.947412 -1.961782 -1.171856
v -2.947412 1.722112 -1.171856
v -2.723976 -1.961782 -1.149849
v -2.723976 1.722112 -1.149849
v -2.509128 -1.961782 -1.084676
v -2.509128 1.722112 -1.084676
v -2.311122 -1.961782 -0.978839
v -2.311122 1.722112 -0.978839
v -2.137568 -1.961782 -0.836408
v -2.137568 1.722112 -0.836408
v -1.995137 -1.961782 -0.662854
v -1.995137 1.722112 -0.662854
v -1.889300 -1.961782 -0.464849
v -1.889300 1.722112 -0.464849
v -1.824127 -1.961782 -0.250000
v -1.824127 1.722112 -0.250000
v -1.802120 -1.961782 -0.026565
v -1.802120 1.722112 -0.026565
v -1.824127 -1.961782 0.196870
v -1.824127 1.722112 0.196870
v -1.889300 -1.961782 0.411719
v -1.889300 1.722112 0.411719
v -1.995137 -1.961782 0.609725
v -1.995137 1.722112 0.609725
v -2.137568 -1.961782 0.783279
v -2.137568 1.722112 0.783279
v -2.311122 -1.961782 0.925710
v -2.311122 1.722112 0.925710
v -2.509128 -1.961782 1.031547
v -2.509128 1.722112 1.031547
v -2.723977 -1.961782 1.096720
v -2.723977 1.722112 1.096720
v -2.947412 -1.961782 1.118727
v -2.947412 1.722112 1.118727
v -3.170847 -1.961782 1.096720
v -3.170847 1.722112 1.096720
v -3.385696 -1.961782 1.031546
v -3.385696 1.722112 1.031546
v -3.583702 -1.961782 0.925710
v -3.583702 1.722112 0.925710
v -3.757255 -1.961782 0.783278
v -3.757255 1.722112 0.783278
v -3.899687 -1.961782 0.609724
v -3.899687 1.722112 0.609724
v -4.005523 -1.961782 0.411719
v -4.005523 1.722112 0.411719
v -4.070696 -1.961782 0.196870
v -4.070696 1.722112 0.196870
v -4.092703 -1.961782 -0.026566
v -4.092703 1.722112 -0.026566
v -4.070696 -1.961782 -0.250001
v -4.070696 1.722112 -0.250001
v -4.005522 -1.961782 -0.464850
v -4.005522 1.722112 -0.464850
v -3.899686 -1.961782 -0.662855
v -3.899686 1.722112 -0.662855
v -3.757254 -1.961782 -0.836409
v -3.757254 1.722112 -0.836409
v -3.583700 -1.961782 -0.978840
v -3.583700 1.722112 -0.978840
v -3.385694 -1.961782 -1.084676
v -3.385694 1.722112 -1.084676
v -3.170845 -1.961782 -1.149850
v -3.170845 1.722112 -1.149850
vt 1.000000 0.004437
vt 1.000000 0.991657
vt 0.968750 0.991657
vt 0.968750 0.004437
vt 0.937500 0.991657
vt 0.937500 0.004437
vt 0.906250 0.991657
vt 0.906250 0.004437
vt 0.875000 0.991657
vt 0.875000 0.004437
vt 0.843750 0.991657
vt 0.843750 0.004437
vt 0.812500 0.991657
vt 0.812500 0.004437
vt 0.781250 0.991657
vt 0.781250 0.004437
vt 0.750000 0.991657
vt 0.750000 0.004437
vt 0.718750 0.991657
vt 0.718750 0.004437
vt 0.687500 0.991657
vt 0.687500 0.004437
vt 0.656250 0.991657
vt 0.656250 0.004437
vt 0.625000 0.991657
vt 0.625000 0.004437
vt 0.593750 0.991657
vt 0.593750 0.004437
vt 0.562500 0.991657
vt 0.562500 0.004437
vt 0.531250 0.991657
vt 0.531250 0.004437
vt 0.500000 0.991657
vt 0.500000 0.004437
vt 0.468750 0.991657
vt 0.468750 0.004437
vt 0.437500 0.991657
vt 0.437500 0.004437
vt 0.406250 0.991657
vt 0.406250 0.004437
vt 0.375000 0.991657
vt 0.375000 0.004437
vt 0.343750 0.991657
vt 0.343750 0.004437
vt 0.312500 0.991657
vt 0.312500 0.004437
vt 0.281250 0.991657
vt 0.281250 0.004437
vt 0.250000 0.991657
vt 0.250000 0.004437
vt 0.218750 0.991657
vt 0.218750 0.004437
vt 0.187500 0.991657
vt 0.187500 0.004437
vt 0.156250 0.991657
vt 0.156250 0.004437
vt 0.125000 0.991657
vt 0.125000 0.004437
vt 0.093750 0.991657
vt 0.093750 0.004437
vt 0.062500 0.991657
vt 0.062500 0.004437
vt 1.476509 0.518592
vt 1.429687 0.523203
vt 1.382866 0.518592
vt 1.337844 0.504934
vt 1.296351 0.482756
vt 1.259982 0.452909
vt 1.230135 0.416540
vt 1.207956 0.375047
vt 1.194299 0.330025
vt 1.189687 0.283203
vt 1.194299 0.236382
vt 1.207956 0.191359
vt 1.230135 0.149866
vt 1.259982 0.113498
vt 1.296350 0.083650
vt 1.337843 0.061472
vt 1.382866 0.047815
vt 1.429687 0.043203
vt 1.476509 0.047815
vt 1.521531 0.061472
vt 1.563024 0.083650
vt 1.599393 0.113498
vt 1.629240 0.149866
vt 1.651418 0.191359
vt 1.665076 0.236381
vt 1.669687 0.283203
vt 1.665076 0.330025
vt 1.651418 0.375047
vt 1.629240 0.416540
vt 1.599393 0.452909
vt 1.563024 0.482756
vt 1.521531 0.504934
vt 0.031250 0.991657
vt 0.031250 0.004437
vt 0.000000 0.991657
vt 0.000000 0.004437
vt 1.929687 0.523203
vt 1.976509 0.518592
vt 2.021531 0.504934
vt 2.063024 0.482756
vt 2.099393 0.452909
vt 2.129240 0.416540
vt 2.151418 0.375047
vt 2.165076 0.330025
vt 2.169687 0.283203
vt 2.165076 0.236381
vt 2.151418 0.191359
vt 2.129240 0.149866
vt 2.099393 0.113498
vt 2.063024 0.083650
vt 2.021531 0.061472
vt 1.976509 0.047815
vt 1.929687 0.043203
vt 1.882866 0.047815
vt 1.837843 0.061472
vt 1.796350 0.083650
vt 1.759982 0.113498
vt 1.730135 0.149866
vt 1.707956 0.191359
vt 1.694299 0.236382
vt 1.689687 0.283203
vt 1.694299 0.330025
vt 1.707956 0.375047
vt 1.730135 0.416540
vt 1.759982 0.452909
vt 1.796351 0.482756
vt 1.837844 0.504934
vt 1.882866 0.518592
vn 0.0000 -0.6857 -0.7279
vn 0.0000 0.6857 -0.7279
vn 0.1420 0.6857 -0.7139
vn 0.1420 -0.6857 -0.7139
vn 0.2785 0.6857 -0.6725
vn 0.2785 -0.6857 -0.6725
vn 0.4044 0.6857 -0.6052
vn 0.4044 -0.6857 -0.6052
vn 0.5147 0.6857 -0.5147
vn 0.5147 -0.6857 -0.5147
vn 0.6052 0.6857 -0.4044
vn 0.6052 -0.6857 -0.4044
vn 0.6725 0.6857 -0.2785
vn 0.6725 -0.6857 -0.2785
vn 0.7139 0.6857 -0.1420
vn 0.7139 -0.6857 -0.1420
vn 0.7279 0.6857 0.0000
vn 0.7279 -0.6857 0.0000
vn 0.7139 0.6857 0.1420
vn 0.7139 -0.6857 0.1420
vn 0.6725 0.6857 0.2785
vn 0.6725 -0.6857 0.2785
vn 0.6052 0.6857 0.4044
vn 0.6052 -0.6857 0.4044
vn 0.5147 0.6857 0.5147
vn 0.5147 -0.6857 0.5147
vn 0.4044 0.6857 0.6052
vn 0.4044 -0.6857 0.6052
vn 0.2785 0.6857 0.6725
vn 0.2785 -0.6857 0.6725
vn 0.1420 0.6857 0.7139
vn 0.1420 -0.6857 0.7139
vn 0.0000 0.6857 0.7279
vn 0.0000 -0.6857 0.7279
vn -0.1420 0.6857 0.7139
vn -0.1420 -0.6857 0.7139
vn -0.2785 0.6857 0.6725
vn -0.2785 -0.6857 0.6725
vn -0.4044 0.6857 0.6052
vn -0.4044 -0.6857 0.6052
vn -0.5147 0.6857 0.5147
vn -0.5147 -0.6857 0.5147
vn -0.6052 0.6857 0.4044
vn -0.6052 -0.6857 0.4044
vn -0.6725 0.6857 0.2785
vn -0.6725 -0.6857 0.2785
vn -0.7139 0.6857 0.1420
vn -0.7139 -0.6857 0.1420
vn -0.7279 0.6857 0.0000
vn -0.7279 -0.6857 0.0000
vn -0.7139 0.6857 -0.1420
vn -0.7139 -0.6857 -0.1420
vn -0.6725 0.6857 -0.2785
vn -0.6725 -0.6857 -0.2785
vn -0.6052 0.6857 -0.4044
vn -0.6052 -0.6857 -0.4044
vn -0.5147 0.6857 -0.5147
vn -0.5147 -0.6857 -0.5147
vn -0.4044 0.6857 -0.6052
vn -0.4044 -0.6857 -0.6052
vn -0.2785 0.6857 -0.6725
vn -0.2785 -0.6857 -0.6725
vn -0.1420 0.6857 -0.7139
vn -0.1420 -0.6857 -0.7139
usemtl Tree
s 1
f 1/1/1 2/2/2 4/3/3 3/4/4
f 3/4/4 4/3/3 6/5/5 5/6/6
f 5/6/6 6/5/5 8/7/7 7/8/8
f 7/8/8 8/7/7 10/9/9 9/10/10
f 9/10/10 10/9/9 12/11/11 11/12/12
f 11/12/12 12/11/11 14/13/13 13/14/14
f 13/14/14 14/13/13 16/15/15 15/16/16
f 15/16/16 16/15/15 18/17/17 17/18/18
f 17/18/18 18/17/17 20/19/19 19/20/20
f 19/20/20 20/19/19 22/21/21 21/22/22
f 21/22/22 22/21/21 24/23/23 23/24/24
f 23/24/24 24/23/23 26/25/25 25/26/26
f 25/26/26 26/25/25 28/27/27 27/28/28
f 27/28/28 28/27/27 30/29/29 29/30/30
f 29/30/30 30/29/29 32/31/31 31/32/32
f 31/32/32 32/31/31 34/33/33 33/34/34
f 33/34/34 34/33/33 36/35/35 35/36/36
f 35/36/36 36/35/35 38/37/37 37/38/38
f 37/38/38 38/37/37 40/39/39 39/40/40
f 39/40/40 40/39/39 42/41/41 41/42/42
f 41/42/42 42/41/41 44/43/43 43/44/44
f 43/44/44 44/43/43 46/45/45 45/46/46
f 45/46/46 46/45/45 48/47/47 47/48/48
f 47/48/48 48/47/47 50/49/49 49/50/50
f 49/50/50 50/49/49 52/51/51 51/52/52
f 51/52/52 52/51/51 54/53/53 53/54/54
f 53/54/54 54/53/53 56/55/55 55/56/56
f 55/56/56 56/55/55 58/57/57 57/58/58
f 57/58/58 58/57/57 60/59/59 59/60/60
f 59/60/60 60/59/59 62/61/61 61/62/62
f 4/63/3 2/64/2 64/65/63 62/66/61 60/67/59 58/68/57 56/69/55 54/70/53 52/71/51 50/72/49 48/73/47 46/74/45 44/75/43 42/76/41 40/77/39 38/78/37 36/79/35 34/80/33 32/81/31 30/82/29 28/83/27 26/84/25 24/85/23 22/86/21 20/87/19 18/88/17 16/89/15 14/90/13 12/91/11 10/92/9 8/93/7 6/94/5
f 61/62/62 62/61/61 64/95/63 63/96/64
f 63/96/64 64/95/63 2/97/2 1/98/1
f 1/99/1 3/100/4 5/101/6 7/102/8 9/103/10 11/104/12 13/105/14 15/106/16 17/107/18 19/108/20 21/109/22 23/110/24 25/111/26 27/112/28 29/113/30 31/114/32 33/115/34 35/116/36 37/117/38 39/118/40 41/119/42 43/120/44 45/121/46 47/122/48 49/123/50 51/124/52 53/125/54 55/126/56 57/127/58 59/128/60 61/129/62 63/130/64
